<?xml version="1.0" encoding="UTF-8" standalone="no"?><!DOCTYPE svg PUBLIC "-//W3C//DTD SVG 1.1//EN" "http://www.w3.org/Graphics/SVG/1.1/DTD/svg11.dtd"><svg width="100%" height="100%" viewBox="0 0 331 242" version="1.1" xmlns="http://www.w3.org/2000/svg" xmlns:xlink="http://www.w3.org/1999/xlink" xml:space="preserve" xmlns:serif="http://www.serif.com/" style="fill-rule:evenodd;clip-rule:evenodd;stroke-linejoin:round;stroke-miterlimit:2;"><path d="M284.654,220.588l-239.08,0l0,10.709m120.287,-158.141l-41.341,79.693l41.371,53.539m0.717,-182.48l-7.322,12.452l7.073,11.456m-131.992,193.941l-0,-26.398l-34.368,-108.084l49.559,55.847l23.659,-76.207l43.333,56.283l41.341,-82.433l-12.203,-24.904l20.172,-35.862m118.831,174.039l6.724,20.421l13.199,-42.337l-19.923,21.916Zm-7.969,10.211l-19.923,23.41l27.893,-0.747l-7.969,-22.663Zm-64.253,-20.67l-33.372,44.08l55.536,0l-22.165,-44.08Zm32.624,39.349l25.651,-29.636l-17.931,-64.502l-32.624,43.333l24.904,50.804Zm-126.218,-39.349l-22.165,44.08l55.536,0l-33.372,-44.08Zm-32.624,39.349l24.904,-50.804l-32.624,-43.333l-17.931,64.502l25.651,29.636Zm-31.628,-18.678l-7.969,22.663l27.893,0.747l-19.923,-23.41Zm-7.969,-10.211l-19.923,-21.916l13.199,42.337l6.724,-20.421Zm-1.08,57.258l239.08,0l0,-10.709m-118.793,-220.588l18.678,35.862l-12.203,24.904l41.341,82.433l43.333,-56.283l23.659,76.207l49.559,-55.847l-34.368,108.084l0,26.398l-261.493,0m131.992,-193.941l6.176,-11.456l-5.927,-12.452m-0.747,182.485l39.847,-53.544l-39.847,-79.693" style="fill:#f2af0d;"/></svg>
